<?xml version="1.0" encoding="UTF-8" standalone="no"?>
<svg
   viewBox="0 0 256 256"
   width="256"
   height="256"
   version="1.1"
   id="svg10"
   sodipodi:docname="icon.svg"
   inkscape:version="1.4.3 (0d15f75, 2025-12-25)"
   xmlns:inkscape="http://www.inkscape.org/namespaces/inkscape"
   xmlns:sodipodi="http://sodipodi.sourceforge.net/DTD/sodipodi-0.dtd"
   xmlns="http://www.w3.org/2000/svg"
   xmlns:svg="http://www.w3.org/2000/svg">
  <sodipodi:namedview
     id="namedview10"
     pagecolor="#ffffff"
     bordercolor="#000000"
     borderopacity="0.25"
     inkscape:showpageshadow="2"
     inkscape:pageopacity="0.0"
     inkscape:pagecheckerboard="0"
     inkscape:deskcolor="#d1d1d1"
     inkscape:zoom="1"
     inkscape:cx="128"
     inkscape:cy="128"
     inkscape:window-width="2023"
     inkscape:window-height="1114"
     inkscape:window-x="195"
     inkscape:window-y="180"
     inkscape:window-maximized="0"
     inkscape:current-layer="svg10" />
  <defs
     id="defs2">
    <!-- Clip the screen contents to the screen rectangle -->
    <clipPath
       id="screenClip">
      <rect
         x="26"
         y="22"
         width="204"
         height="152"
         id="rect1" />
    </clipPath>
    <!-- Subtle gloss overlay on the screen -->
    <linearGradient
       id="screenGloss"
       x1="22.442956"
       y1="25.486839"
       x2="128.09749"
       y2="131.14137"
       gradientTransform="matrix(1.1584927,0,0,0.86319062,0,12.625)"
       gradientUnits="userSpaceOnUse">
      <stop
         offset="0%"
         stop-color="#ffffff"
         stop-opacity="0.20"
         id="stop1" />
      <stop
         offset="100%"
         stop-color="#ffffff"
         stop-opacity="0"
         id="stop2" />
    </linearGradient>
  </defs>
  <!-- Monitor body -->
  <rect
     x="16"
     y="24.625"
     width="224"
     height="172"
     rx="10"
     fill="#484848"
     id="rect2" />
  <rect
     x="16"
     y="24.625"
     width="224"
     height="172"
     rx="10"
     fill="none"
     stroke="#7a7a7a"
     stroke-width="1.5"
     id="rect3" />
  <!-- Screen background -->
  <rect
     x="26"
     y="34.625"
     width="204"
     height="152"
     fill="#0a0a12"
     id="rect4" />
  <!-- Minecraft grass block raster image -->
  <image
     href="grass.png"
     x="26"
     y="22"
     width="204"
     height="152"
     preserveAspectRatio="xMidYMid"
     clip-path="url(#screenClip)"
     id="image4"
     transform="translate(0,12.625)" />
  <!-- Screen gloss -->
  <rect
     x="26"
     y="34.625"
     width="204"
     height="152"
     fill="url(#screenGloss)"
     id="rect5"
     style="fill:url(#screenGloss)" />
  <!-- WiFi arcs -->
  <g
     clip-path="url(#screenClip)"
     fill="none"
     stroke="#38bdf8"
     stroke-linecap="round"
     id="g7"
     transform="matrix(0.44582645,0,0,0.44582645,120.40851,30.816818)">
    <circle
       cx="204"
       cy="58"
       r="3.5"
       fill="#38bdf8"
       stroke="none"
       id="circle5" />
    <path
       d="m 196,50 a 11,11 0 0 1 16,0"
       stroke-width="4"
       id="path5" />
    <path
       d="m 190,44 a 20,20 0 0 1 28,0"
       stroke-width="4"
       id="path6" />
    <path
       d="m 183,38 a 29,29 0 0 1 42,0"
       stroke-width="4"
       id="path7" />
  </g>
  <!-- Stand neck -->
  <rect
     x="112"
     y="196.625"
     width="32"
     height="24"
     fill="#2a2a2a"
     id="rect7" />
  <!-- Stand base -->
  <rect
     x="80"
     y="220.625"
     width="96"
     height="11"
     rx="5"
     fill="#2a2a2a"
     id="rect8" />
  <rect
     x="80"
     y="220.625"
     width="96"
     height="11"
     rx="5"
     fill="none"
     stroke="#7a7a7a"
     stroke-width="1"
     id="rect9" />
  <!-- Mouse cursor -->
  <!-- Drop shadow -->
  <path
     d="m 136.64388,89.787244 v 21.999996 l 5,-5 3,9 4,-1 -4,-9 h 7 z"
     fill="#000000"
     opacity="0.4"
     id="path9" />
  <!-- Cursor -->
  <path
     d="m 133.64388,86.787244 v 21.999996 l 5,-5 3,9 4,-1 -4,-9 h 7 z"
     fill="#ffffff"
     stroke="#111111"
     stroke-width="1.2"
     stroke-linejoin="round"
     id="path10" />
</svg>
